<svg width="75" height="16" viewBox="0 0 75 16" fill="none" xmlns="http://www.w3.org/2000/svg">
<mask id="path-1-outside-1_49699_41" maskUnits="userSpaceOnUse" x="0" y="0" width="76" height="16" fill="black">
<rect fill="white" width="76" height="16"/>
<path d="M6.14 15.24C5.15333 15.24 4.28667 15.06 3.54 14.7C2.80667 14.34 2.22667 13.8267 1.8 13.16C1.38667 12.4933 1.17333 11.7 1.16 10.78H3.4C3.41333 11.4867 3.65333 12.0933 4.12 12.6C4.6 13.0933 5.26667 13.34 6.12 13.34C6.90667 13.34 7.52 13.16 7.96 12.8C8.4 12.4267 8.62 11.9467 8.62 11.36C8.62 10.8667 8.48667 10.46 8.22 10.14C7.96667 9.80667 7.56667 9.51333 7.02 9.26C6.47333 8.99333 5.76667 8.72 4.9 8.44C3.74 8.06667 2.88667 7.55333 2.34 6.9C1.79333 6.23333 1.52 5.42 1.52 4.46C1.52 3.35333 1.92 2.46 2.72 1.78C3.52 1.1 4.62 0.76 6.02 0.76C7.38 0.76 8.47333 1.11333 9.3 1.82C10.1267 2.51333 10.5533 3.48 10.58 4.72H8.32C8.32 4.38667 8.22667 4.06667 8.04 3.76C7.85333 3.44 7.58667 3.18 7.24 2.98C6.89333 2.76667 6.46667 2.66 5.96 2.66C5.33333 2.64667 4.80667 2.8 4.38 3.12C3.95333 3.42667 3.74 3.84667 3.74 4.38C3.74 5.03333 4 5.54667 4.52 5.92C5.04 6.28 5.88667 6.65333 7.06 7.04C7.79333 7.28 8.44 7.57333 9 7.92C9.57333 8.25333 10.02 8.68667 10.34 9.22C10.6733 9.74 10.84 10.4067 10.84 11.22C10.84 11.9667 10.6533 12.6467 10.28 13.26C9.90667 13.86 9.36667 14.34 8.66 14.7C7.96667 15.06 7.12667 15.24 6.14 15.24ZM17.4122 15V0.999999H22.1522C23.2189 0.999999 24.0989 1.18667 24.7922 1.56C25.4855 1.92 25.9989 2.42 26.3322 3.06C26.6655 3.7 26.8322 4.43333 26.8322 5.26C26.8322 6.08667 26.6655 6.82 26.3322 7.46C25.9989 8.1 25.4855 8.60667 24.7922 8.98C24.0989 9.34 23.2189 9.52 22.1522 9.52H19.5322V15H17.4122ZM19.5322 7.62H22.0522C22.9589 7.62 23.6189 7.40667 24.0322 6.98C24.4589 6.55333 24.6722 5.98 24.6722 5.26C24.6722 4.55333 24.4589 3.98667 24.0322 3.56C23.6189 3.12 22.9589 2.9 22.0522 2.9H19.5322V7.62ZM37.9844 15.24C36.851 15.24 35.871 14.9467 35.0444 14.36C34.2177 13.7733 33.5844 12.94 33.1444 11.86C32.7044 10.78 32.4844 9.49333 32.4844 8C32.4844 6.50667 32.7044 5.22 33.1444 4.14C33.5844 3.06 34.2177 2.22667 35.0444 1.64C35.871 1.05333 36.851 0.76 37.9844 0.76C39.131 0.76 40.111 1.05333 40.9244 1.64C41.751 2.22667 42.3844 3.06 42.8244 4.14C43.2644 5.22 43.4844 6.50667 43.4844 8C43.4844 9.49333 43.2644 10.78 42.8244 11.86C42.3844 12.94 41.751 13.7733 40.9244 14.36C40.111 14.9467 39.131 15.24 37.9844 15.24ZM37.9844 13.24C38.9844 13.24 39.791 12.7933 40.4044 11.9C41.0177 10.9933 41.3244 9.69333 41.3244 8C41.3244 6.30667 41.0177 5.01333 40.4044 4.12C39.791 3.21333 38.9844 2.76 37.9844 2.76C36.971 2.76 36.1577 3.21333 35.5444 4.12C34.9444 5.01333 34.6444 6.30667 34.6444 8C34.6444 9.69333 34.9444 10.9933 35.5444 11.9C36.1577 12.7933 36.971 13.24 37.9844 13.24ZM52.9166 15V2.9H49.1566V0.999999H58.7966V2.9H55.0366V15H52.9166ZM70.1088 15.24C69.1221 15.24 68.2554 15.06 67.5088 14.7C66.7754 14.34 66.1954 13.8267 65.7688 13.16C65.3554 12.4933 65.1421 11.7 65.1288 10.78H67.3688C67.3821 11.4867 67.6221 12.0933 68.0888 12.6C68.5688 13.0933 69.2354 13.34 70.0888 13.34C70.8754 13.34 71.4888 13.16 71.9288 12.8C72.3688 12.4267 72.5888 11.9467 72.5888 11.36C72.5888 10.8667 72.4554 10.46 72.1888 10.14C71.9354 9.80667 71.5354 9.51333 70.9888 9.26C70.4421 8.99333 69.7354 8.72 68.8688 8.44C67.7088 8.06667 66.8554 7.55333 66.3088 6.9C65.7621 6.23333 65.4888 5.42 65.4888 4.46C65.4888 3.35333 65.8888 2.46 66.6888 1.78C67.4888 1.1 68.5888 0.76 69.9888 0.76C71.3488 0.76 72.4421 1.11333 73.2688 1.82C74.0954 2.51333 74.5221 3.48 74.5488 4.72H72.2888C72.2888 4.38667 72.1954 4.06667 72.0088 3.76C71.8221 3.44 71.5554 3.18 71.2088 2.98C70.8621 2.76667 70.4354 2.66 69.9288 2.66C69.3021 2.64667 68.7754 2.8 68.3488 3.12C67.9221 3.42667 67.7088 3.84667 67.7088 4.38C67.7088 5.03333 67.9688 5.54667 68.4888 5.92C69.0088 6.28 69.8554 6.65333 71.0288 7.04C71.7621 7.28 72.4088 7.57333 72.9688 7.92C73.5421 8.25333 73.9888 8.68667 74.3088 9.22C74.6421 9.74 74.8088 10.4067 74.8088 11.22C74.8088 11.9667 74.6221 12.6467 74.2487 13.26C73.8754 13.86 73.3354 14.34 72.6288 14.7C71.9354 15.06 71.0954 15.24 70.1088 15.24Z"/>
</mask>
<path d="M6.14 15.24C5.15333 15.24 4.28667 15.06 3.54 14.7C2.80667 14.34 2.22667 13.8267 1.8 13.16C1.38667 12.4933 1.17333 11.7 1.16 10.78H3.4C3.41333 11.4867 3.65333 12.0933 4.12 12.6C4.6 13.0933 5.26667 13.34 6.12 13.34C6.90667 13.34 7.52 13.16 7.96 12.8C8.4 12.4267 8.62 11.9467 8.62 11.36C8.62 10.8667 8.48667 10.46 8.22 10.14C7.96667 9.80667 7.56667 9.51333 7.02 9.26C6.47333 8.99333 5.76667 8.72 4.9 8.44C3.74 8.06667 2.88667 7.55333 2.34 6.9C1.79333 6.23333 1.52 5.42 1.52 4.46C1.52 3.35333 1.92 2.46 2.72 1.78C3.52 1.1 4.62 0.76 6.02 0.76C7.38 0.76 8.47333 1.11333 9.3 1.82C10.1267 2.51333 10.5533 3.48 10.58 4.72H8.32C8.32 4.38667 8.22667 4.06667 8.04 3.76C7.85333 3.44 7.58667 3.18 7.24 2.98C6.89333 2.76667 6.46667 2.66 5.96 2.66C5.33333 2.64667 4.80667 2.8 4.38 3.12C3.95333 3.42667 3.74 3.84667 3.74 4.38C3.74 5.03333 4 5.54667 4.52 5.92C5.04 6.28 5.88667 6.65333 7.06 7.04C7.79333 7.28 8.44 7.57333 9 7.92C9.57333 8.25333 10.02 8.68667 10.34 9.22C10.6733 9.74 10.84 10.4067 10.84 11.22C10.84 11.9667 10.6533 12.6467 10.28 13.26C9.90667 13.86 9.36667 14.34 8.66 14.7C7.96667 15.06 7.12667 15.24 6.14 15.24ZM17.4122 15V0.999999H22.1522C23.2189 0.999999 24.0989 1.18667 24.7922 1.56C25.4855 1.92 25.9989 2.42 26.3322 3.06C26.6655 3.7 26.8322 4.43333 26.8322 5.26C26.8322 6.08667 26.6655 6.82 26.3322 7.46C25.9989 8.1 25.4855 8.60667 24.7922 8.98C24.0989 9.34 23.2189 9.52 22.1522 9.52H19.5322V15H17.4122ZM19.5322 7.62H22.0522C22.9589 7.62 23.6189 7.40667 24.0322 6.98C24.4589 6.55333 24.6722 5.98 24.6722 5.26C24.6722 4.55333 24.4589 3.98667 24.0322 3.56C23.6189 3.12 22.9589 2.9 22.0522 2.9H19.5322V7.62ZM37.9844 15.24C36.851 15.24 35.871 14.9467 35.0444 14.36C34.2177 13.7733 33.5844 12.94 33.1444 11.86C32.7044 10.78 32.4844 9.49333 32.4844 8C32.4844 6.50667 32.7044 5.22 33.1444 4.14C33.5844 3.06 34.2177 2.22667 35.0444 1.64C35.871 1.05333 36.851 0.76 37.9844 0.76C39.131 0.76 40.111 1.05333 40.9244 1.64C41.751 2.22667 42.3844 3.06 42.8244 4.14C43.2644 5.22 43.4844 6.50667 43.4844 8C43.4844 9.49333 43.2644 10.78 42.8244 11.86C42.3844 12.94 41.751 13.7733 40.9244 14.36C40.111 14.9467 39.131 15.24 37.9844 15.24ZM37.9844 13.24C38.9844 13.24 39.791 12.7933 40.4044 11.9C41.0177 10.9933 41.3244 9.69333 41.3244 8C41.3244 6.30667 41.0177 5.01333 40.4044 4.12C39.791 3.21333 38.9844 2.76 37.9844 2.76C36.971 2.76 36.1577 3.21333 35.5444 4.12C34.9444 5.01333 34.6444 6.30667 34.6444 8C34.6444 9.69333 34.9444 10.9933 35.5444 11.9C36.1577 12.7933 36.971 13.24 37.9844 13.24ZM52.9166 15V2.9H49.1566V0.999999H58.7966V2.9H55.0366V15H52.9166ZM70.1088 15.24C69.1221 15.24 68.2554 15.06 67.5088 14.7C66.7754 14.34 66.1954 13.8267 65.7688 13.16C65.3554 12.4933 65.1421 11.7 65.1288 10.78H67.3688C67.3821 11.4867 67.6221 12.0933 68.0888 12.6C68.5688 13.0933 69.2354 13.34 70.0888 13.34C70.8754 13.34 71.4888 13.16 71.9288 12.8C72.3688 12.4267 72.5888 11.9467 72.5888 11.36C72.5888 10.8667 72.4554 10.46 72.1888 10.14C71.9354 9.80667 71.5354 9.51333 70.9888 9.26C70.4421 8.99333 69.7354 8.72 68.8688 8.44C67.7088 8.06667 66.8554 7.55333 66.3088 6.9C65.7621 6.23333 65.4888 5.42 65.4888 4.46C65.4888 3.35333 65.8888 2.46 66.6888 1.78C67.4888 1.1 68.5888 0.76 69.9888 0.76C71.3488 0.76 72.4421 1.11333 73.2688 1.82C74.0954 2.51333 74.5221 3.48 74.5488 4.72H72.2888C72.2888 4.38667 72.1954 4.06667 72.0088 3.76C71.8221 3.44 71.5554 3.18 71.2088 2.98C70.8621 2.76667 70.4354 2.66 69.9288 2.66C69.3021 2.64667 68.7754 2.8 68.3488 3.12C67.9221 3.42667 67.7088 3.84667 67.7088 4.38C67.7088 5.03333 67.9688 5.54667 68.4888 5.92C69.0088 6.28 69.8554 6.65333 71.0288 7.04C71.7621 7.28 72.4088 7.57333 72.9688 7.92C73.5421 8.25333 73.9888 8.68667 74.3088 9.22C74.6421 9.74 74.8088 10.4067 74.8088 11.22C74.8088 11.9667 74.6221 12.6467 74.2487 13.26C73.8754 13.86 73.3354 14.34 72.6288 14.7C71.9354 15.06 71.0954 15.24 70.1088 15.24Z" fill="#212121"/>
<path d="M3.54 14.7L3.45186 14.8795L3.45314 14.8802L3.54 14.7ZM1.8 13.16L1.63 13.2654L1.63155 13.2678L1.8 13.16ZM1.16 10.78V10.58H0.95708L0.960021 10.7829L1.16 10.78ZM3.4 10.78L3.59996 10.7762L3.59626 10.58H3.4V10.78ZM4.12 12.6L3.97284 12.7355L3.97666 12.7395L4.12 12.6ZM7.96 12.8L8.08667 12.9548L8.0894 12.9525L7.96 12.8ZM8.22 10.14L8.06061 10.2611L8.06636 10.268L8.22 10.14ZM7.02 9.26L6.9323 9.43979L6.93591 9.44146L7.02 9.26ZM4.9 8.44L4.96149 8.24969L4.96127 8.24962L4.9 8.44ZM2.34 6.9L2.18534 7.02682L2.18661 7.02834L2.34 6.9ZM9.3 1.82L9.17004 1.97203L9.17148 1.97324L9.3 1.82ZM10.58 4.72V4.92H10.7843L10.78 4.7157L10.58 4.72ZM8.32 4.72H8.12V4.92H8.32V4.72ZM8.04 3.76L7.86721 3.86079L7.86916 3.86399L8.04 3.76ZM7.24 2.98L7.13514 3.1504L7.14006 3.15324L7.24 2.98ZM5.96 2.66L5.95574 2.86H5.96V2.66ZM4.38 3.12L4.49675 3.28244L4.5 3.28L4.38 3.12ZM4.52 5.92L4.40334 6.08249L4.40616 6.08444L4.52 5.92ZM7.06 7.04L6.9974 7.22995L6.99779 7.23008L7.06 7.04ZM9 7.92L8.89469 8.09012L8.89948 8.0929L9 7.92ZM10.34 9.22L10.1684 9.32294L10.1716 9.32793L10.34 9.22ZM10.28 13.26L10.4498 13.3657L10.4508 13.364L10.28 13.26ZM8.66 14.7L8.56921 14.5218L8.56784 14.5225L8.66 14.7ZM6.14 15.04C5.17775 15.04 4.34176 14.8645 3.62686 14.5198L3.45314 14.8802C4.23158 15.2555 5.12892 15.44 6.14 15.44V15.04ZM3.62813 14.5205C2.92652 14.176 2.37475 13.687 1.96845 13.0522L1.63155 13.2678C2.07858 13.9663 2.68681 14.504 3.45187 14.8795L3.62813 14.5205ZM1.96998 13.0546C1.57884 12.4237 1.37288 11.6672 1.35998 10.7771L0.960021 10.7829C0.973788 11.7328 1.1945 12.5629 1.63002 13.2654L1.96998 13.0546ZM1.16 10.98H3.4V10.58H1.16V10.98ZM3.20004 10.7838C3.21427 11.5379 3.47216 12.1918 3.97289 12.7355L4.26711 12.4645C3.83451 11.9948 3.6124 11.4354 3.59996 10.7762L3.20004 10.7838ZM3.97666 12.7395C4.50293 13.2804 5.22644 13.54 6.12 13.54V13.14C5.30689 13.14 4.69707 12.9063 4.26335 12.4605L3.97666 12.7395ZM6.12 13.54C6.93528 13.54 7.59935 13.3535 8.08665 12.9548L7.83335 12.6452C7.44065 12.9665 6.87805 13.14 6.12 13.14V13.54ZM8.0894 12.9525C8.57504 12.5404 8.82 12.0043 8.82 11.36H8.42C8.42 11.8891 8.22496 12.3129 7.83061 12.6475L8.0894 12.9525ZM8.82 11.36C8.82 10.8289 8.67557 10.3743 8.37364 10.012L8.06636 10.268C8.29776 10.5457 8.42 10.9044 8.42 11.36H8.82ZM8.37923 10.019C8.0994 9.65078 7.66822 9.33996 7.10409 9.07854L6.93591 9.44146C7.46511 9.6867 7.83394 9.96255 8.06077 10.261L8.37923 10.019ZM7.10769 9.08025C6.5495 8.80796 5.83318 8.53131 4.96149 8.24969L4.83851 8.63031C5.70015 8.90869 6.39717 9.17871 6.93232 9.43975L7.10769 9.08025ZM4.96127 8.24962C3.82252 7.88312 3.00752 7.38611 2.49339 6.77166L2.18661 7.02834C2.76581 7.72056 3.65749 8.25021 4.83873 8.63038L4.96127 8.24962ZM2.49465 6.77318C1.98066 6.14637 1.72 5.37934 1.72 4.46H1.32C1.32 5.46066 1.606 6.3203 2.18535 7.02682L2.49465 6.77318ZM1.72 4.46C1.72 3.40839 2.09692 2.5721 2.84953 1.93239L2.59047 1.62761C1.74308 2.3479 1.32 3.29828 1.32 4.46H1.72ZM2.84953 1.93239C3.60283 1.29209 4.65149 0.96 6.02 0.96V0.56C4.58851 0.56 3.43717 0.907914 2.59047 1.62761L2.84953 1.93239ZM6.02 0.96C7.34467 0.96 8.38798 1.30348 9.17004 1.97202L9.42996 1.66797C8.55869 0.923184 7.41533 0.56 6.02 0.56V0.96ZM9.17148 1.97324C9.94716 2.62381 10.3544 3.53237 10.38 4.7243L10.78 4.7157C10.7523 3.42763 10.3062 2.40286 9.42852 1.66676L9.17148 1.97324ZM10.58 4.52H8.32V4.92H10.58V4.52ZM8.52 4.72C8.52 4.34716 8.41505 3.9915 8.21084 3.65601L7.86916 3.86399C8.03828 4.14183 8.12 4.42617 8.12 4.72H8.52ZM8.21276 3.65923C8.00714 3.30675 7.71428 3.02272 7.33994 2.80676L7.14006 3.15324C7.45906 3.33728 7.69952 3.57325 7.86724 3.86077L8.21276 3.65923ZM7.34482 2.80967C6.95975 2.5727 6.49467 2.46 5.96 2.46V2.86C6.43867 2.86 6.82692 2.96063 7.13518 3.15033L7.34482 2.80967ZM5.96425 2.46004C5.30102 2.44593 4.72847 2.60864 4.26 2.96L4.5 3.28C4.88486 2.99135 5.36564 2.8474 5.95575 2.85995L5.96425 2.46004ZM4.26327 2.9576C3.7834 3.3025 3.54 3.78343 3.54 4.38H3.94C3.94 3.9099 4.12327 3.55083 4.49673 3.2824L4.26327 2.9576ZM3.54 4.38C3.54 5.09618 3.82976 5.67065 4.40336 6.08246L4.63664 5.75753C4.17024 5.42268 3.94 4.97049 3.94 4.38H3.54ZM4.40616 6.08444C4.95059 6.46135 5.81971 6.84185 6.9974 7.22995L7.1226 6.85005C5.95362 6.46482 5.12941 6.09865 4.63384 5.75556L4.40616 6.08444ZM6.99779 7.23008C7.71853 7.46596 8.35031 7.75303 8.89473 8.09005L9.10527 7.74995C8.52969 7.39364 7.86813 7.09404 7.12221 6.84992L6.99779 7.23008ZM8.89948 8.0929C9.44562 8.41043 9.86702 8.82043 10.1685 9.3229L10.5115 9.1171C10.173 8.5529 9.70105 8.09624 9.10052 7.7471L8.89948 8.0929ZM10.1716 9.32793C10.4787 9.807 10.64 10.433 10.64 11.22H11.04C11.04 10.3803 10.868 9.673 10.5084 9.11207L10.1716 9.32793ZM10.64 11.22C10.64 11.9315 10.4626 12.5753 10.1092 13.156L10.4508 13.364C10.844 12.718 11.04 12.0018 11.04 11.22H10.64ZM10.1102 13.1543C9.75838 13.7198 9.24749 14.1763 8.56922 14.5218L8.75079 14.8782C9.48584 14.5037 10.055 14.0002 10.4498 13.3657L10.1102 13.1543ZM8.56784 14.5225C7.90948 14.8643 7.10282 15.04 6.14 15.04V15.44C7.15051 15.44 8.02385 15.2557 8.75216 14.8775L8.56784 14.5225ZM17.4122 15H17.2122V15.2H17.4122V15ZM17.4122 0.999999V0.799999H17.2122V0.999999H17.4122ZM24.7922 1.56L24.6974 1.73611L24.7 1.7375L24.7922 1.56ZM26.3322 3.06L26.1548 3.15239L26.3322 3.06ZM26.3322 7.46L26.1548 7.36761L26.3322 7.46ZM24.7922 8.98L24.8844 9.15752L24.887 9.15609L24.7922 8.98ZM19.5322 9.52V9.32H19.3322V9.52H19.5322ZM19.5322 15V15.2H19.7322V15H19.5322ZM19.5322 7.62H19.3322V7.82H19.5322V7.62ZM24.0322 6.98L23.8907 6.83856L23.8885 6.84084L24.0322 6.98ZM24.0322 3.56L23.8863 3.697L23.8908 3.70142L24.0322 3.56ZM19.5322 2.9V2.7H19.3322V2.9H19.5322ZM17.6122 15V0.999999H17.2122V15H17.6122ZM17.4122 1.2H22.1522V0.799999H17.4122V1.2ZM22.1522 1.2C23.197 1.2 24.0417 1.38303 24.6974 1.73609L24.887 1.3839C24.156 0.990305 23.2407 0.799999 22.1522 0.799999V1.2ZM24.7 1.7375C25.3601 2.0802 25.842 2.55188 26.1548 3.15239L26.5096 2.96761C26.1557 2.28811 25.611 1.75979 24.8844 1.3825L24.7 1.7375ZM26.1548 3.15239C26.4712 3.75995 26.6322 4.46078 26.6322 5.26H27.0322C27.0322 4.40588 26.8598 3.64005 26.5096 2.96761L26.1548 3.15239ZM26.6322 5.26C26.6322 6.05921 26.4712 6.76005 26.1548 7.36761L26.5096 7.55239C26.8598 6.87995 27.0322 6.11412 27.0322 5.26H26.6322ZM26.1548 7.36761C25.8417 7.96882 25.3588 8.44776 24.6974 8.80391L24.887 9.15609C25.6123 8.76557 26.156 8.23118 26.5096 7.55239L26.1548 7.36761ZM24.7 8.8025C24.0436 9.14332 23.1979 9.32 22.1522 9.32V9.72C23.2398 9.72 24.1541 9.53668 24.8844 9.1575L24.7 8.8025ZM22.1522 9.32H19.5322V9.72H22.1522V9.32ZM19.3322 9.52V15H19.7322V9.52H19.3322ZM19.5322 14.8H17.4122V15.2H19.5322V14.8ZM19.5322 7.82H22.0522V7.42H19.5322V7.82ZM22.0522 7.82C22.9849 7.82 23.709 7.60109 24.1758 7.11916L23.8885 6.84084C23.5287 7.21224 22.9328 7.42 22.0522 7.42V7.82ZM24.1736 7.12142C24.6449 6.65013 24.8722 6.02205 24.8722 5.26H24.4722C24.4722 5.93795 24.2728 6.45653 23.8908 6.83858L24.1736 7.12142ZM24.8722 5.26C24.8722 4.51008 24.6442 3.88915 24.1736 3.41858L23.8908 3.70142C24.2735 4.08418 24.4722 4.59659 24.4722 5.26H24.8722ZM24.178 3.42306C23.7113 2.92635 22.9864 2.7 22.0522 2.7V3.1C22.9313 3.1 23.5264 3.31365 23.8864 3.69693L24.178 3.42306ZM22.0522 2.7H19.5322V3.1H22.0522V2.7ZM19.3322 2.9V7.62H19.7322V2.9H19.3322ZM35.0444 14.36L35.1601 14.1969L35.0444 14.36ZM33.1444 11.86L32.9592 11.9355L33.1444 11.86ZM33.1444 4.14L32.9592 4.06454L33.1444 4.14ZM35.0444 1.64L34.9286 1.4769L35.0444 1.64ZM40.9244 1.64L40.8074 1.80221L40.8086 1.8031L40.9244 1.64ZM42.8244 4.14L43.0096 4.06454L42.8244 4.14ZM42.8244 11.86L43.0096 11.9355L42.8244 11.86ZM40.9244 14.36L40.8086 14.1969L40.8074 14.1978L40.9244 14.36ZM40.4044 11.9L40.5693 12.0132L40.57 12.0121L40.4044 11.9ZM40.4044 4.12L40.2387 4.23206L40.2395 4.2332L40.4044 4.12ZM35.5444 4.12L35.3787 4.00794L35.3783 4.00849L35.5444 4.12ZM35.5444 11.9L35.3776 12.0104L35.3795 12.0132L35.5444 11.9ZM37.9844 15.04C36.8874 15.04 35.949 14.7568 35.1601 14.1969L34.9286 14.5231C35.7931 15.1366 36.8147 15.44 37.9844 15.44V15.04ZM35.1601 14.1969C34.3689 13.6354 33.7575 12.8347 33.3296 11.7845L32.9592 11.9355C33.4113 13.0453 34.0665 13.9113 34.9286 14.5231L35.1601 14.1969ZM33.3296 11.7845C32.9017 10.7342 32.6844 9.47441 32.6844 8H32.2844C32.2844 9.51226 32.5071 10.8258 32.9592 11.9355L33.3296 11.7845ZM32.6844 8C32.6844 6.52559 32.9017 5.26581 33.3296 4.21546L32.9592 4.06454C32.5071 5.17419 32.2844 6.48774 32.2844 8H32.6844ZM33.3296 4.21546C33.7575 3.16526 34.3689 2.36459 35.1601 1.8031L34.9286 1.4769C34.0665 2.08874 33.4113 2.95474 32.9592 4.06454L33.3296 4.21546ZM35.1601 1.8031C35.949 1.24324 36.8874 0.96 37.9844 0.96V0.56C36.8147 0.56 35.7931 0.863431 34.9286 1.4769L35.1601 1.8031ZM37.9844 0.96C39.0953 0.96 40.0329 1.24353 40.8074 1.80221L41.0414 1.47779C40.1892 0.863132 39.1668 0.56 37.9844 0.56V0.96ZM40.8086 1.8031C41.5998 2.36459 42.2113 3.16526 42.6392 4.21546L43.0096 4.06454C42.5575 2.95474 41.9023 2.08874 41.0401 1.4769L40.8086 1.8031ZM42.6392 4.21546C43.0671 5.26581 43.2844 6.52559 43.2844 8H43.6844C43.6844 6.48774 43.4617 5.17419 43.0096 4.06454L42.6392 4.21546ZM43.2844 8C43.2844 9.47441 43.0671 10.7342 42.6392 11.7845L43.0096 11.9355C43.4617 10.8258 43.6844 9.51226 43.6844 8H43.2844ZM42.6392 11.7845C42.2113 12.8347 41.5998 13.6354 40.8086 14.1969L41.0401 14.5231C41.9023 13.9113 42.5575 13.0453 43.0096 11.9355L42.6392 11.7845ZM40.8074 14.1978C40.0329 14.7565 39.0953 15.04 37.9844 15.04V15.44C39.1668 15.44 40.1892 15.1369 41.0414 14.5222L40.8074 14.1978ZM37.9844 13.44C39.0565 13.44 39.9223 12.9555 40.5693 12.0132L40.2395 11.7868C39.6598 12.6312 38.9122 13.04 37.9844 13.04V13.44ZM40.57 12.0121C41.2149 11.0588 41.5244 9.713 41.5244 8H41.1244C41.1244 9.67367 40.8205 10.9279 40.2387 11.7879L40.57 12.0121ZM41.5244 8C41.5244 6.28731 41.215 4.94738 40.5693 4.0068L40.2395 4.2332C40.8204 5.07929 41.1244 6.32603 41.1244 8H41.5244ZM40.57 4.00794C39.9236 3.05241 39.0578 2.56 37.9844 2.56V2.96C38.9109 2.96 39.6584 3.37426 40.2387 4.23206L40.57 4.00794ZM37.9844 2.56C36.8986 2.56 36.0257 3.0515 35.3787 4.00794L35.71 4.23206C36.2897 3.37517 37.0435 2.96 37.9844 2.96V2.56ZM35.3783 4.00849C34.7468 4.94872 34.4444 6.28793 34.4444 8H34.8444C34.8444 6.3254 35.1419 5.07794 35.7104 4.23151L35.3783 4.00849ZM34.4444 8C34.4444 9.71237 34.747 11.0574 35.3776 12.0104L35.7112 11.7896C35.1418 10.9292 34.8444 9.67429 34.8444 8H34.4444ZM35.3795 12.0132C36.0271 12.9564 36.8999 13.44 37.9844 13.44V13.04C37.0422 13.04 36.2883 12.6303 35.7093 11.7868L35.3795 12.0132ZM52.9166 15H52.7166V15.2H52.9166V15ZM52.9166 2.9H53.1166V2.7H52.9166V2.9ZM49.1566 2.9H48.9566V3.1H49.1566V2.9ZM49.1566 0.999999V0.799999H48.9566V0.999999H49.1566ZM58.7966 0.999999H58.9966V0.799999H58.7966V0.999999ZM58.7966 2.9V3.1H58.9966V2.9H58.7966ZM55.0366 2.9V2.7H54.8366V2.9H55.0366ZM55.0366 15V15.2H55.2366V15H55.0366ZM53.1166 15V2.9H52.7166V15H53.1166ZM52.9166 2.7H49.1566V3.1H52.9166V2.7ZM49.3566 2.9V0.999999H48.9566V2.9H49.3566ZM49.1566 1.2H58.7966V0.799999H49.1566V1.2ZM58.5966 0.999999V2.9H58.9966V0.999999H58.5966ZM58.7966 2.7H55.0366V3.1H58.7966V2.7ZM54.8366 2.9V15H55.2366V2.9H54.8366ZM55.0366 14.8H52.9166V15.2H55.0366V14.8ZM67.5088 14.7L67.4206 14.8795L67.4219 14.8802L67.5088 14.7ZM65.7688 13.16L65.5988 13.2654L65.6003 13.2678L65.7688 13.16ZM65.1288 10.78V10.58H64.9258L64.9288 10.7829L65.1288 10.78ZM67.3688 10.78L67.5687 10.7762L67.565 10.58H67.3688V10.78ZM68.0888 12.6L67.9416 12.7355L67.9454 12.7395L68.0888 12.6ZM71.9287 12.8L72.0554 12.9548L72.0581 12.9525L71.9287 12.8ZM72.1888 10.14L72.0294 10.2611L72.0351 10.268L72.1888 10.14ZM70.9887 9.26L70.901 9.43979L70.9047 9.44146L70.9887 9.26ZM68.8688 8.44L68.9302 8.24969L68.93 8.24962L68.8688 8.44ZM66.3087 6.9L66.1541 7.02682L66.1554 7.02834L66.3087 6.9ZM73.2688 1.82L73.1388 1.97203L73.1402 1.97324L73.2688 1.82ZM74.5488 4.72V4.92H74.7531L74.7487 4.7157L74.5488 4.72ZM72.2887 4.72H72.0888V4.92H72.2887V4.72ZM72.0088 3.76L71.836 3.86079L71.8379 3.86399L72.0088 3.76ZM71.2087 2.98L71.1039 3.1504L71.1088 3.15324L71.2087 2.98ZM69.9287 2.66L69.9245 2.86H69.9287V2.66ZM68.3487 3.12L68.4655 3.28244L68.4688 3.28L68.3487 3.12ZM68.4887 5.92L68.3721 6.08249L68.3749 6.08444L68.4887 5.92ZM71.0287 7.04L70.9662 7.22995L70.9665 7.23008L71.0287 7.04ZM72.9688 7.92L72.8634 8.09012L72.8682 8.0929L72.9688 7.92ZM74.3088 9.22L74.1372 9.32294L74.1404 9.32793L74.3088 9.22ZM74.2487 13.26L74.4186 13.3657L74.4196 13.364L74.2487 13.26ZM72.6288 14.7L72.538 14.5218L72.5366 14.5225L72.6288 14.7ZM70.1087 15.04C69.1465 15.04 68.3105 14.8645 67.5956 14.5198L67.4219 14.8802C68.2003 15.2555 69.0977 15.44 70.1087 15.44V15.04ZM67.5969 14.5205C66.8953 14.176 66.3435 13.687 65.9372 13.0522L65.6003 13.2678C66.0473 13.9663 66.6556 14.504 67.4206 14.8795L67.5969 14.5205ZM65.9387 13.0546C65.5476 12.4237 65.3416 11.6672 65.3287 10.7771L64.9288 10.7829C64.9425 11.7328 65.1632 12.5629 65.5988 13.2654L65.9387 13.0546ZM65.1288 10.98H67.3688V10.58H65.1288V10.98ZM67.1688 10.7838C67.183 11.5379 67.4409 12.1918 67.9416 12.7355L68.2359 12.4645C67.8033 11.9948 67.5812 11.4354 67.5687 10.7762L67.1688 10.7838ZM67.9454 12.7395C68.4717 13.2804 69.1952 13.54 70.0888 13.54V13.14C69.2756 13.14 68.6658 12.9063 68.2321 12.4605L67.9454 12.7395ZM70.0888 13.54C70.904 13.54 71.5681 13.3535 72.0554 12.9548L71.8021 12.6452C71.4094 12.9665 70.8468 13.14 70.0888 13.14V13.54ZM72.0581 12.9525C72.5438 12.5404 72.7887 12.0043 72.7887 11.36H72.3887C72.3887 11.8891 72.1937 12.3129 71.7994 12.6475L72.0581 12.9525ZM72.7887 11.36C72.7887 10.8289 72.6443 10.3743 72.3424 10.012L72.0351 10.268C72.2665 10.5457 72.3887 10.9044 72.3887 11.36H72.7887ZM72.348 10.019C72.0681 9.65078 71.637 9.33996 71.0728 9.07854L70.9047 9.44146C71.4339 9.6867 71.8027 9.96255 72.0295 10.261L72.348 10.019ZM71.0764 9.08025C70.5182 8.80796 69.8019 8.53131 68.9302 8.24969L68.8073 8.63031C69.6689 8.90869 70.3659 9.17871 70.9011 9.43975L71.0764 9.08025ZM68.93 8.24962C67.7913 7.88312 66.9763 7.38611 66.4621 6.77166L66.1554 7.02834C66.7346 7.72056 67.6262 8.25021 68.8075 8.63038L68.93 8.24962ZM66.4634 6.77318C65.9494 6.14637 65.6888 5.37934 65.6888 4.46H65.2887C65.2887 5.46066 65.5748 6.3203 66.1541 7.02682L66.4634 6.77318ZM65.6888 4.46C65.6888 3.40839 66.0657 2.5721 66.8183 1.93239L66.5592 1.62761C65.7118 2.3479 65.2887 3.29828 65.2887 4.46H65.6888ZM66.8183 1.93239C67.5716 1.29209 68.6202 0.96 69.9888 0.96V0.56C68.5573 0.56 67.4059 0.907914 66.5592 1.62761L66.8183 1.93239ZM69.9888 0.96C71.3134 0.96 72.3567 1.30348 73.1388 1.97202L73.3987 1.66797C72.5274 0.923184 71.3841 0.56 69.9888 0.56V0.96ZM73.1402 1.97324C73.9159 2.62381 74.3232 3.53237 74.3488 4.7243L74.7487 4.7157C74.721 3.42763 74.2749 2.40286 73.3973 1.66676L73.1402 1.97324ZM74.5488 4.52H72.2887V4.92H74.5488V4.52ZM72.4887 4.72C72.4887 4.34716 72.3838 3.9915 72.1796 3.65601L71.8379 3.86399C72.007 4.14183 72.0888 4.42617 72.0888 4.72H72.4887ZM72.1815 3.65923C71.9759 3.30675 71.683 3.02272 71.3087 2.80676L71.1088 3.15324C71.4278 3.33728 71.6683 3.57325 71.836 3.86077L72.1815 3.65923ZM71.3136 2.80967C70.9285 2.5727 70.4634 2.46 69.9287 2.46V2.86C70.4074 2.86 70.7957 2.96063 71.1039 3.15033L71.3136 2.80967ZM69.933 2.46004C69.2698 2.44593 68.6972 2.60864 68.2288 2.96L68.4688 3.28C68.8536 2.99135 69.3344 2.8474 69.9245 2.85995L69.933 2.46004ZM68.232 2.9576C67.7522 3.3025 67.5088 3.78343 67.5088 4.38H67.9088C67.9088 3.9099 68.092 3.55083 68.4655 3.2824L68.232 2.9576ZM67.5088 4.38C67.5088 5.09618 67.7985 5.67065 68.3721 6.08246L68.6054 5.75753C68.139 5.42268 67.9088 4.97049 67.9088 4.38H67.5088ZM68.3749 6.08444C68.9193 6.46135 69.7885 6.84185 70.9662 7.22995L71.0913 6.85005C69.9224 6.46482 69.0982 6.09865 68.6026 5.75556L68.3749 6.08444ZM70.9665 7.23008C71.6873 7.46596 72.3191 7.75303 72.8635 8.09005L73.074 7.74995C72.4984 7.39364 71.8369 7.09404 71.091 6.84992L70.9665 7.23008ZM72.8682 8.0929C73.4144 8.41043 73.8358 8.82043 74.1373 9.3229L74.4802 9.1171C74.1417 8.5529 73.6698 8.09624 73.0693 7.7471L72.8682 8.0929ZM74.1404 9.32793C74.4475 9.807 74.6087 10.433 74.6087 11.22H75.0088C75.0088 10.3803 74.8367 9.673 74.4771 9.11207L74.1404 9.32793ZM74.6087 11.22C74.6087 11.9315 74.4314 12.5753 74.0779 13.156L74.4196 13.364C74.8128 12.718 75.0088 12.0018 75.0088 11.22H74.6087ZM74.0789 13.1543C73.7271 13.7198 73.2162 14.1763 72.538 14.5218L72.7195 14.8782C73.4546 14.5037 74.0237 14.0002 74.4186 13.3657L74.0789 13.1543ZM72.5366 14.5225C71.8782 14.8643 71.0716 15.04 70.1087 15.04V15.44C71.1193 15.44 71.9926 15.2557 72.7209 14.8775L72.5366 14.5225Z" fill="#212121" mask="url(#path-1-outside-1_49699_41)"/>
</svg>
